<?xml version="1.0" standalone="no"?>
<!DOCTYPE svg PUBLIC "-//W3C//DTD SVG 20010904//EN"
 "http://www.w3.org/TR/2001/REC-SVG-20010904/DTD/svg10.dtd">
<svg version="1.0" xmlns="http://www.w3.org/2000/svg"
 width="124.000000pt" height="124.000000pt" viewBox="0 0 124.000000 124.000000"
 preserveAspectRatio="xMidYMid meet">
<metadata>
Created by potrace 1.11, written by Peter Selinger 2001-2013
</metadata>
<g transform="translate(0.000000,124.000000) scale(0.100000,-0.100000)"
fill="#000000" stroke="none">
<path d="M183 786 l6 -55 -29 20 c-35 27 -61 22 -73 -14 -11 -35 -1 -48 42
-52 41 -3 48 -11 22 -24 -11 -6 -25 -21 -31 -32 -9 -16 -7 -23 12 -39 34 -29
47 -24 67 21 l19 41 18 -38 c24 -47 35 -51 68 -22 l27 23 -26 28 c-14 15 -30
27 -35 27 -6 0 -10 5 -10 11 0 7 10 9 24 5 14 -3 36 -1 49 5 22 10 24 14 14
45 -12 40 -27 42 -74 12 l-35 -21 8 24 c4 13 8 38 9 54 0 28 -3 30 -39 33
l-39 3 6 -55z"/>
<path d="M573 715 c-36 -15 -62 -53 -41 -59 40 -13 68 -15 73 -6 9 15 51 12
65 -5 11 -13 6 -15 -38 -15 -90 0 -142 -73 -97 -137 17 -24 77 -45 102 -36 9
4 52 7 97 7 l81 1 0 30 c0 23 -5 31 -22 33 -21 3 -23 8 -23 77 0 70 -2 75 -31
99 -24 21 -41 26 -82 26 -29 -1 -66 -7 -84 -15z"/>
<path d="M883 715 c-36 -15 -62 -53 -41 -59 40 -13 68 -15 73 -6 9 15 51 12
65 -5 11 -13 6 -15 -38 -15 -90 0 -142 -73 -97 -137 17 -24 77 -45 102 -36 9
4 52 7 97 7 l81 1 0 30 c0 23 -5 31 -22 33 -21 3 -23 8 -23 77 0 70 -2 75 -31
99 -24 21 -41 26 -82 26 -29 -1 -66 -7 -84 -15z"/>
<path d="M80 285 c0 -13 67 -15 540 -15 473 0 540 2 540 15 0 13 -67 15 -540
15 -473 0 -540 -2 -540 -15z"/>
</g>
</svg>
